<?xml version="1.0" encoding="UTF-8" standalone="no"?>
<svg
   data-name="Layer 1"
   width="649.67538"
   height="226.1298"
   viewBox="0 0 649.67538 226.1298"
   version="1.1"
   id="svg5557"
   sodipodi:docname="undraw_meta_erlang_decide_re_ixfw.svg"
   inkscape:version="1.2.2 (b0a8486541, 2022-12-01, custom)"
   xmlns:inkscape="http://www.inkscape.org/namespaces/inkscape"
   xmlns:sodipodi="http://sodipodi.sourceforge.net/DTD/sodipodi-0.dtd"
   xmlns="http://www.w3.org/2000/svg"
   xmlns:svg="http://www.w3.org/2000/svg">
  <defs
     id="defs5561" />
  <sodipodi:namedview
     id="namedview5559"
     pagecolor="#ffffff"
     bordercolor="#000000"
     borderopacity="0.25"
     inkscape:showpageshadow="2"
     inkscape:pageopacity="0.0"
     inkscape:pagecheckerboard="0"
     inkscape:deskcolor="#d1d1d1"
     showgrid="false"
     inkscape:zoom="1.9240379"
     inkscape:cx="325.09755"
     inkscape:cy="113.30338"
     inkscape:window-width="2560"
     inkscape:window-height="1391"
     inkscape:window-x="0"
     inkscape:window-y="25"
     inkscape:window-maximized="1"
     inkscape:current-layer="svg5557" />
  <path
     id="bcc0edba-f0dd-423b-bdfc-f2fa10ec70b3-1165"
     data-name="Path 680"
     d="M363.08335,336.9351a3.78766,3.78766,0,0,0,0,7.57532H439.9178a3.78766,3.78766,0,1,0,0-7.57532Z"
     transform="translate(-275.16231 -336.9351)"
     fill="#3f3d56" />
  <path
     id="fa56b25f-6ad1-4bb0-b587-f288aecf2229-1166"
     data-name="Path 681"
     d="M363.08335,359.25074a3.78767,3.78767,0,0,0,0,7.57533H439.9178a3.78767,3.78767,0,0,0,0-7.57533Z"
     transform="translate(-275.16231 -336.9351)"
     fill="#3f3d56" />
  <path
     id="b413f49f-a7ee-4528-83fd-849b3d17d98f-1167"
     data-name="Path 682"
     d="M401.50117,430.02472a23.84091,23.84091,0,1,1,23.84091-23.842h0A23.86874,23.86874,0,0,1,401.50117,430.02472Z"
     transform="translate(-275.16231 -336.9351)"
     fill="#e4e4e4" />
  <path
     id="ba255611-006f-40c2-b981-3cbda4cfa311-1168"
     data-name="Path 680"
     d="M760.08335,336.9351a3.78766,3.78766,0,1,0,0,7.57532H836.9178a3.78766,3.78766,0,0,0,0-7.57532Z"
     transform="translate(-275.16231 -336.9351)"
     fill="#3f3d56" />
  <path
     id="f7616677-88a5-4e4e-be2c-5696cf4c3e42-1169"
     data-name="Path 681"
     d="M760.08335,359.25074a3.78767,3.78767,0,0,0,0,7.57533H836.9178a3.78767,3.78767,0,0,0,0-7.57533Z"
     transform="translate(-275.16231 -336.9351)"
     fill="#3f3d56" />
  <path
     id="b0ec98cc-856e-42d0-b3d1-ea9b3df6bb16-1170"
     data-name="Path 682"
     d="M798.50117,430.02472a23.84091,23.84091,0,1,1,23.84091-23.842h0A23.86874,23.86874,0,0,1,798.50117,430.02472Z"
     transform="translate(-275.16231 -336.9351)"
     fill="#e4e4e4" />
  <ellipse
     cx="484.90215"
     cy="475.49165"
     rx="7.19508"
     ry="22.91937"
     transform="translate(-427.67489 372.91709) rotate(-64.62574)"
     fill="#2f2e41"
     id="ellipse5511" />
  <ellipse
     cx="585.28661"
     cy="504.7203"
     rx="7.19508"
     ry="22.91937"
     transform="translate(-462.64755 156.53075) rotate(-39.93837)"
     fill="#2f2e41"
     id="ellipse5513" />
  <circle
     cx="261.3695"
     cy="159.8261"
     r="45.83867"
     fill="#2f2e41"
     id="circle5515" />
  <rect
     x="266.84564"
     y="195.8006"
     width="13.92567"
     height="24.95017"
     fill="#2f2e41"
     id="rect5517" />
  <rect
     x="238.9943"
     y="195.8006"
     width="13.92567"
     height="24.95017"
     fill="#2f2e41"
     id="rect5519" />
  <ellipse
     cx="269.16657"
     cy="221.04089"
     rx="11.60475"
     ry="4.35179"
     fill="#2f2e41"
     id="ellipse5521" />
  <ellipse
     cx="241.31523"
     cy="220.46068"
     rx="11.60475"
     ry="4.35179"
     fill="#2f2e41"
     id="ellipse5523" />
  <path
     d="M522.13878,439.14059c4.093-16.48357,22.16034-26.18381,40.35452-21.66607s29.6254,21.54274,25.53236,38.02632-17.67239,16.53678-35.86657,12.019S518.04574,455.6242,522.13878,439.14059Z"
     transform="translate(-275.16231 -336.9351)"
     fill="#6c63ff"
     id="path5525"
     style="fill:#a72613;fill-opacity:1" />
  <circle
     cx="254.51656"
     cy="150.15373"
     r="15.28261"
     fill="#fff"
     id="circle5527" />
  <circle
     cx="248.23545"
     cy="144.67575"
     r="5.0942"
     fill="#3f3d56"
     id="circle5529" />
  <path
     d="M539.26587,518.92927a10.18842,10.18842,0,0,1-20.04736,3.64948h0l-.00358-.01969c-1.00237-5.5369,3.27861-7.49624,8.81551-8.49855S538.26356,513.39243,539.26587,518.92927Z"
     transform="translate(-275.16231 -336.9351)"
     fill="#fff"
     id="path5531" />
  <ellipse
     cx="715.09785"
     cy="475.49165"
     rx="22.91937"
     ry="7.19508"
     transform="translate(-409.9374 15.37692) rotate(-25.37426)"
     fill="#2f2e41"
     id="ellipse5533" />
  <ellipse
     cx="614.71339"
     cy="504.7203"
     rx="22.91937"
     ry="7.19508"
     transform="translate(-442.05925 315.09586) rotate(-50.06163)"
     fill="#2f2e41"
     id="ellipse5535" />
  <circle
     cx="388.30588"
     cy="159.8261"
     r="45.83867"
     fill="#2f2e41"
     id="circle5537" />
  <rect
     x="368.90407"
     y="195.8006"
     width="13.92567"
     height="24.95017"
     fill="#2f2e41"
     id="rect5539" />
  <rect
     x="396.75541"
     y="195.8006"
     width="13.92567"
     height="24.95017"
     fill="#2f2e41"
     id="rect5541" />
  <ellipse
     cx="380.50882"
     cy="221.04089"
     rx="11.60475"
     ry="4.35179"
     fill="#2f2e41"
     id="ellipse5543" />
  <ellipse
     cx="408.36016"
     cy="220.46068"
     rx="11.60475"
     ry="4.35179"
     fill="#2f2e41"
     id="ellipse5545" />
  <path
     d="M677.86122,439.14059c-4.093-16.48357-22.16034-26.18381-40.35452-21.66607s-29.6254,21.54274-25.53236,38.02632,17.67239,16.53678,35.86657,12.019S681.95426,455.6242,677.86122,439.14059Z"
     transform="translate(-275.16231 -336.9351)"
     fill="#6c63ff"
     id="path5547"
     style="fill:#a72613;fill-opacity:1" />
  <circle
     cx="395.15882"
     cy="150.15373"
     r="15.28261"
     fill="#fff"
     id="circle5549" />
  <circle
     cx="401.43994"
     cy="144.67575"
     r="5.0942"
     fill="#3f3d56"
     id="circle5551" />
  <path
     d="M660.73413,518.92927a10.18842,10.18842,0,0,0,20.04736,3.64948h0l.00358-.01969c1.00237-5.5369-3.27861-7.49624-8.81551-8.49855S661.73644,513.39243,660.73413,518.92927Z"
     transform="translate(-275.16231 -336.9351)"
     fill="#fff"
     id="path5553" />
  <path
     d="M923.647,563.0649H276.353a1.19069,1.19069,0,0,1,0-2.38137H923.647a1.19068,1.19068,0,0,1,0,2.38137Z"
     transform="translate(-275.16231 -336.9351)"
     fill="#3f3d56"
     id="path5555" />
</svg>
